<svg id="Layer_1" data-name="Layer 1" xmlns="http://www.w3.org/2000/svg" viewBox="0 0 226.77 226.77"><defs><style>.cls-1{fill:none;stroke:#800066;stroke-miterlimit:10;stroke-width:4.56px;}</style></defs><title>Untitled-5</title><circle class="cls-1" cx="115.95" cy="59.03" r="21.72"/><line class="cls-1" x1="138.34" y1="141.74" x2="104.72" y2="141.94"/><path class="cls-1" d="M89.23,91a40.89,40.89,0,0,1,26.85-10.09h0A40.61,40.61,0,0,1,148,95.73"/><circle class="cls-1" cx="62.63" cy="106.94" r="21.72"/><path class="cls-1" d="M76.05,189.71,34.7,190A11.38,11.38,0,0,1,23,178.9l-.07-11.61c-.12-21.15,17.7-38.39,39.82-38.52h0c22.11-.13,40.13,16.91,40.26,38.06l.07,11.6"/><circle class="cls-1" cx="165.23" cy="121.3" r="21.72"/><path class="cls-1" d="M194.13,204l-56.84.33a11.36,11.36,0,0,1-11.68-11l-.07-11.61c-.13-21.15,17.7-38.4,39.81-38.53h0a41.33,41.33,0,0,1,19,4.44,39.59,39.59,0,0,1,14.14,12,36.9,36.9,0,0,1,7.15,21.61l.06,11.61A11.37,11.37,0,0,1,194.13,204Z"/></svg>