<svg id="Layer_1" data-name="Layer 1" xmlns="http://www.w3.org/2000/svg" viewBox="0 0 226.77 226.77"><defs><style>.cls-1{fill:none;stroke:#800066;stroke-miterlimit:10;stroke-width:4.56px;}.cls-2{fill:#fff;}.cls-3{fill:#8d0066;}</style></defs><title>Untitled-5</title><path class="cls-1" d="M193.54,107.83v63.42A20.73,20.73,0,0,1,172.81,192h-116a20.73,20.73,0,0,1-20.73-20.73V110.17"/><path class="cls-1" d="M170.18,192V132.75a12,12,0,0,0-12-12H143a12,12,0,0,0-12,12V192"/><rect class="cls-1" x="46.68" y="120.71" width="72.01" height="60.53" rx="19.51" ry="19.51"/><circle class="cls-1" cx="158.64" cy="157.92" r="2.67"/><line class="cls-1" x1="65" y1="84.19" x2="77.93" y2="46"/><line class="cls-1" x1="97.9" y1="84.7" x2="100.29" y2="46"/><line class="cls-1" x1="161.28" y1="85.48" x2="147.5" y2="44.33"/><line class="cls-1" x1="127.71" y1="84.7" x2="125.5" y2="46.33"/><path class="cls-1" d="M65.26,97.21c0,8.33-8.61,15.08-19,15.08s-18.76-6.75-18.76-15.08l-.52-13h0L57.93,46H169.61L197.5,84.7H28.38"/><path class="cls-1" d="M198.88,86.23V93.6l-.19,3.61c0,8.33-8.3,15.08-18.53,15.08s-18.52-6.75-18.52-15.08v-13"/><path class="cls-1" d="M97.86,97.21c0,8.33-7.29,15.08-16.3,15.08s-16.3-6.75-16.3-15.08l-.26-13"/><path class="cls-1" d="M127.55,97.21a14.87,14.87,0,1,1-29.74,0l-.17-13"/><path class="cls-1" d="M161.58,97.21c0,8.33-7.61,15.08-17,15.08s-17-6.75-17-15.08l-.06-13"/><circle class="cls-2" cx="186" cy="177.83" r="22"/><path class="cls-3" d="M185.87,150.83A27.16,27.16,0,1,0,213,178,27.17,27.17,0,0,0,185.87,150.83Zm17.68,30.68H189.39v14.16h-7V181.51H168.19v-7h14.15V160.31h7v14.15h14.16Z"/></svg>