<svg id="Layer_1" data-name="Layer 1" xmlns="http://www.w3.org/2000/svg" viewBox="0 0 45.32 45.32"><defs><style>.cls-1{fill:#890066;}</style></defs><title>weblog</title><path class="cls-1" d="M28.52,37.44H15.34a5.92,5.92,0,0,1-5.92-5.91V13.79a5.92,5.92,0,0,1,5.92-5.91H28.52a5.92,5.92,0,0,1,5.91,5.91.65.65,0,0,1-1.3,0,4.61,4.61,0,0,0-4.61-4.61H15.34a4.61,4.61,0,0,0-4.62,4.61V31.53a4.62,4.62,0,0,0,4.62,4.61H28.52a4.62,4.62,0,0,0,4.61-4.61V30a.65.65,0,0,1,1.3,0v1.54A5.92,5.92,0,0,1,28.52,37.44Z"/><path class="cls-1" d="M29.4,15.12H14.67a.65.65,0,1,1,0-1.3H29.4a.65.65,0,1,1,0,1.3Z"/><path class="cls-1" d="M29.4,20.54H14.67a.65.65,0,0,1,0-1.3H29.4a.65.65,0,1,1,0,1.3Z"/><path class="cls-1" d="M25.93,26H14.67a.65.65,0,1,1,0-1.3H25.93a.65.65,0,0,1,0,1.3Z"/><path class="cls-1" d="M25.36,31.38H14.67a.65.65,0,0,1,0-1.3H25.36a.65.65,0,1,1,0,1.3Z"/><path class="cls-1" d="M36.85,17.19l-1-.58a1.26,1.26,0,0,0-1.68.57l-6.32,10.9a1.51,1.51,0,0,0-.19.92l.28,2a.24.24,0,0,0,.35.2l1.89-.76a1.55,1.55,0,0,0,.7-.62l6.31-10.9A1.27,1.27,0,0,0,36.85,17.19Z"/></svg>