<svg id="Layer_1" data-name="Layer 1" xmlns="http://www.w3.org/2000/svg" viewBox="0 0 226.77 226.77"><defs><style>.cls-1{fill:none;stroke:#800066;stroke-miterlimit:10;stroke-width:4.56px;}.cls-2{fill:#8d0066;}</style></defs><title>Untitled-5</title><circle class="cls-1" cx="112.86" cy="71.58" r="29.63"/><path class="cls-1" d="M152.29,184.37l-77.53.45c-8.76.05-15.9-6.7-16-15.07l-.09-15.83c-.17-28.85,24.15-52.38,54.32-52.56h0a56.36,56.36,0,0,1,25.88,6.06,54.23,54.23,0,0,1,19.3,16.37A50.44,50.44,0,0,1,168,153.28l.09,15.83C168.1,177.49,161,184.32,152.29,184.37Z"/><path class="cls-2" d="M147.87,137.28A27.17,27.17,0,1,0,175,164.45,27.17,27.17,0,0,0,147.87,137.28ZM165.55,168H151.39v14.15h-7V168H130.19v-7.05h14.15V146.77h7v14.15h14.16Z"/></svg>